<svg xmlns="http://www.w3.org/2000/svg" viewBox="0 0 160 120" role="img" aria-label="Pañuelitos">
 <defs><linearGradient id="b" x1="0" x2="1" y1="0" y2="1"><stop stop-color="#bde9ff"/><stop offset="1" stop-color="#5ab4e6"/></linearGradient></defs>
 <rect x="8" y="10" width="144" height="100" rx="20" fill="#eaf8ff"/>
 <path d="M24 86V39c0-9 7-16 16-16h80c9 0 16 7 16 16v47c0 9-7 16-16 16H40c-9 0-16-7-16-16z" fill="url(#b)" stroke="#287eae" stroke-width="4"/>
 <path d="M48 41c6-13 15-18 25-5 7 9 14 9 20-2 7-13 17-10 24 4l-4 27H51z" fill="#fff" stroke="#9bd8f5" stroke-width="3"/>
 <path d="M43 72h74" stroke="#287eae" stroke-width="4" stroke-linecap="round"/><circle cx="80" cy="83" r="5" fill="#fff"/>
</svg>
