<svg xmlns="http://www.w3.org/2000/svg" viewBox="0 0 900 600"><rect width="900" height="600" fill="#e8f0ea"/><path d="M-30 120 L930 500 M-80 520 L920 80" stroke="#fff" stroke-width="70"/><path d="M-30 120 L930 500 M-80 520 L920 80" stroke="#c7d0c7" stroke-width="3"/><path d="M120 -20 L300 620 M620 -20 L480 620 M0 300 L900 300" stroke="#fff" stroke-width="35"/><path d="M120 -20 L300 620 M620 -20 L480 620 M0 300 L900 300" stroke="#c7d0c7" stroke-width="2"/><text x="40" y="55" font-family="Arial" font-size="28" fill="#426052" font-weight="700">Ubicación aproximada</text><text x="40" y="90" font-family="Arial" font-size="22" fill="#61746a">Barrio Bancario · Salta</text><text x="60" y="190" font-family="Arial" font-size="18" fill="#5c7065">Barrio Bancario</text><text x="650" y="445" font-family="Arial" font-size="18" fill="#5c7065">Salta</text><g transform="translate(450 300)"><path d="M0 70 C-75 -15 -70 -82 0 -82 C70 -82 75 -15 0 70Z" fill="#b34d3d" stroke="#fff" stroke-width="7"/><circle cy="-30" r="19" fill="#fff"/></g><text x="450" y="410" text-anchor="middle" font-family="Arial" font-size="22" fill="#315246" font-weight="700">Punto de referencia</text></svg>